# xmcd CD database file
#
# Track frame offsets:
#	150
#	13097
#	36980
#	61212
#	84255
#	91122
#	111090
#	137037
#	160047
#	166885
#	174287
#	184655
#	193842
#	202135
#	216670
#
# Disc length: 3216 seconds
#
# Revision: 0
# Processed by: cddbd v1.4PL0 Copyright (c) Steve Scherf et al.
# Submitted via: CDex 1.50beta9
#
DISCID=cb0c8e0f
DTITLE=Christian Wallumrod Ensemble - Sofienberg Variations
DYEAR=2003
DGENRE=Jazz
TTITLE0=Sarabande Nouvelle
TTITLE1=Memor
TTITLE2=Edith
TTITLE3=Alas Alert
TTITLE4=Small Picture #1
TTITLE5=Sarabande Nouvelle, var.1
TTITLE6=Psalm
TTITLE7=Liturgia
TTITLE8=Small Picture #3
TTITLE9=Small Picture #2
TTITLE10=Small Picture #3 1/2
TTITLE11=Edith, var.
TTITLE12=Memor, var.
TTITLE13=Sarabande Nouvelle, var.2
TTITLE14=Losing Temple
EXTD=YEAR: 2003
EXTT0=
EXTT1=
EXTT2=
EXTT3=
EXTT4=
EXTT5=
EXTT6=
EXTT7=
EXTT8=
EXTT9=
EXTT10=
EXTT11=
EXTT12=
EXTT13=
EXTT14=
PLAYORDER=
